HIERARCHY
ROOT pelvis
{
  OFFSET 0 100 0
  CHANNELS 6 Xposition Yposition Zposition Zrotation Xrotation Yrotation
  JOINT pelvis_right_femur
  {
    OFFSET -10.78128 -3.44521 -0.5502486
    CHANNELS 3 Zrotation Xrotation Yrotation
    JOINT right_femur_tibia
    {
      OFFSET -0.8047443 -44.0398 -0.1307829
      CHANNELS 3 Zrotation Xrotation Yrotation
      JOINT right_tibia_foot
      {
        OFFSET 3.006224 -47.83518 -5
        CHANNELS 3 Zrotation Xrotation Yrotation
        End Site
        {
          OFFSET 0 -5 15
        }
      }
    }
  }
  JOINT pelvis_left_femur
  {
    OFFSET 10.78128 -3.44521 -0.5502486
    CHANNELS 3 Zrotation Xrotation Yrotation
    JOINT left_femur_tibia
    {
      OFFSET 0.8047443 -44.0398 -0.1307829
      CHANNELS 3 Zrotation Xrotation Yrotation
      JOINT left_tibia_foot
      {
        OFFSET -4.370144 -48.10324 -4.275266
        CHANNELS 3 Zrotation Xrotation Yrotation
        End Site
        {
          OFFSET 0 -5 15
        }
      }
    }
  }
  JOINT pelvis_spine1
  {
    OFFSET 0 6.468898 -3.129235
    CHANNELS 3 Zrotation Xrotation Yrotation
    JOINT spine1
    {
      OFFSET 0 23.15396 4.99043
      CHANNELS 3 Zrotation Xrotation Yrotation
      JOINT spine2
      {
        OFFSET 0 20.79997 -5.064912
        CHANNELS 3 Zrotation Xrotation Yrotation
        JOINT neck
        {
          OFFSET 0 14.38658 9.616178
          CHANNELS 3 Zrotation Xrotation Yrotation
          End Site
          {
            OFFSET 0 20 0
          }
        }
      }
      JOINT right_manubrium
      {
        OFFSET -5.722621 16.35077 3.967754
        CHANNELS 3 Zrotation Xrotation Yrotation
        JOINT right_clavicle
        {
          OFFSET -13.16364 1.694482 -4.693211
          CHANNELS 3 Zrotation Xrotation Yrotation
          JOINT right_humerus
          {
            OFFSET -28.5034 -0.3100689 -2.792744
            CHANNELS 3 Zrotation Xrotation Yrotation
            JOINT right_radius
            {
              OFFSET -25.15693 0.02248979 -1.271978
              CHANNELS 3 Zrotation Xrotation Yrotation
              End Site
              {
                OFFSET -15 0 0
              }
            }
          }
        }
      }
      JOINT left_manubrium
      {
        OFFSET 5.722621 16.35077 3.967754
        CHANNELS 3 Zrotation Xrotation Yrotation
        JOINT left_clavicle
        {
          OFFSET 13.16364 1.694482 -4.693211
          CHANNELS 3 Zrotation Xrotation Yrotation
          JOINT left_humerus
          {
            OFFSET 29.39168 -1.063119 -2.237045
            CHANNELS 3 Zrotation Xrotation Yrotation
            JOINT left_radius
            {
              OFFSET 24.59957 -0.9528479 0.9047498
              CHANNELS 3 Zrotation Xrotation Yrotation
              End Site
              {
                OFFSET 15 -0 -0
              }
            }
          }
        }
      }
    }
  }
}
MOTION
Frames: 13
Frame Time: 0.0416666666667
400.3337 102.5182 3113.117 2.80965 -7.797948 10.0232 -0.2987168 -5.334778 1.78139 -0 53.66111 -0 -2.471364 4.456537 -4.758208 -5.904848 0.2373871 -9.456474 -0 17.08494 -0 -0.6852618 -13.63218 16.25101 0.2149333 -3.300885 6.169312 0.5419225 15.41737 -6.093105 1.775441 22.53975 2.881369 1.260807 -19.08522 5.50541 0.05373643 -24.83318 13.15299 87.40087 18.76688 -12.07873 -0 0 20.99958 -23.64452 15.0673 12.03427 4.677714 -22.48311 -4.587882 -94.83326 13.668 27.91234 0 0 -2.601919 13.54228 19.29028 -5.432683
401.8016 102.8382 3118.161 2.732859 -7.46176 11.20802 -0.3070671 -11.77743 0.8374335 -0 46.4305 -0 -3.042966 3.069078 -5.419645 -5.563332 4.467686 -9.145139 -0 14.38718 -0 -0.9660842 -15.7251 15.15171 0.1212617 -3.187365 5.7466 0.6907927 15.20774 -6.327635 1.717571 22.83395 3.375964 1.633145 -19.3365 5.765101 0.2298688 -23.6586 13.16182 88.0506 19.06264 -13.69487 -0 0 18.79526 -23.20131 14.36841 11.14452 5.20693 -23.07096 -4.580072 -94.21318 13.92512 25.75167 0 0 -4.012061 14.74411 19.36997 -6.877925
403.1323 102.45 3123.25 2.654653 -7.206746 12.19773 -0.1932791 -17.16473 -0.3702658 -0 36.1358 -0 -3.684614 2.051951 -5.852254 -5.169527 8.527663 -8.574349 -0 12.55603 -0 -1.561354 -17.82858 14.44292 0.01724467 -3.095423 5.340618 0.8624881 14.9255 -6.581951 1.654601 23.06098 3.880998 1.963075 -19.67052 6.077244 0.3395115 -22.53068 13.12367 88.73315 19.44576 -15.34108 -0 0 16.60425 -22.6025 13.63293 10.21131 5.73767 -23.68533 -4.548149 -93.38765 14.10619 23.42661 0 0 -5.979862 16.08724 19.25485 -8.422849
404.3704 101.4787 3128.612 2.508492 -6.829867 12.92048 0.0824962 -21.46861 -1.415957 -0 25.41739 -0 -4.125017 1.407581 -6.110935 -4.871813 12.20482 -8.016299 -0 11.92191 -0 -2.279521 -19.61111 14.01848 -0.09284657 -3.035462 4.990789 1.043059 14.58292 -6.83234 1.591493 23.20124 4.359612 2.225376 -20.06747 6.422583 0.3785038 -21.54117 13.04301 89.37911 19.90376 -16.8798 -0 0 14.61462 -21.88081 12.90599 9.299729 6.233452 -24.27353 -4.483989 -92.42137 14.18055 21.1133 0 0 -8.372907 17.48511 18.94135 -9.970741
405.5724 100.1684 3134.384 2.238051 -6.226564 13.39016 0.5882554 -24.62777 -1.918438 -0 16.55829 -0 -4.217556 0.9330831 -6.302065 -4.685732 15.24833 -7.640463 -0 12.69579 -0 -3.020652 -20.67752 13.67694 -0.2020008 -3.009888 4.719878 1.217665 14.20783 -7.059324 1.532612 23.25597 4.786428 2.41468 -20.49724 6.776891 0.3595763 -20.73982 12.93417 89.93901 20.4073 -18.22034 -0 0 12.94556 -21.09366 12.22522 8.460829 6.671587 -24.79688 -4.389138 -91.40824 14.14481 18.96959 0 0 -10.97585 18.84829 18.47142 -11.43405
406.7812 98.81303 3140.614 1.869147 -5.539736 13.66988 1.34719 -26.37488 -1.736203 -0 10.89324 -0 -4.067578 0.5332132 -6.522618 -4.54892 17.47744 -7.47094 -0 15.21672 -0 -3.778254 -20.66301 13.27329 -0.3025367 -3.013105 4.533213 1.373236 13.83583 -7.24897 1.481471 23.24226 5.145671 2.539143 -20.92301 7.11366 0.3049524 -20.13932 12.81516 90.38368 20.91627 -19.31096 -0 0 11.6501 -20.31227 11.6227 7.734067 7.039044 -25.22933 -4.273013 -90.44952 14.02314 17.12242 0 0 -13.53008 20.08934 17.91738 -12.73377
408.0096 97.69879 3147.279 1.517541 -5.095327 13.81288 2.286105 -26.36369 -0.9756784 -0 8.663004 -0 -3.921621 0.2008942 -6.833358 -4.395093 18.78052 -7.443966 -0 19.88626 -0 -4.5843 -19.40098 12.83941 -0.3879762 -3.033351 4.420745 1.500127 13.50328 -7.393318 1.440639 23.18761 5.428096 2.613635 -21.3044 7.4062 0.2395966 -19.72437 12.70338 90.70229 21.38517 -20.12911 -0 0 10.72663 -19.61201 11.12674 7.150075 7.328075 -25.55585 -4.15076 -89.63543 13.8603 15.65969 0 0 -15.77266 21.12769 17.36723 -13.8006
409.2375 97.06489 3154.283 1.323753 -5.18498 13.82419 3.263971 -24.43766 0.139126 -0 9.269612 -0 -3.964103 -0.1322223 -7.234014 -4.19613 19.00514 -7.487713 -0 26.87103 -0 -5.429076 -17.03371 12.58308 -0.4532103 -3.05664 4.362949 1.592094 13.2438 -7.489874 1.411785 23.12349 5.627704 2.653984 -21.60097 7.629119 0.1858351 -19.46501 12.61406 90.89862 21.76554 -20.67272 -0 0 10.13935 -19.0654 10.76349 6.732441 7.53296 -25.77121 -4.041431 -89.03605 13.70861 14.63343 0 0 -17.46798 21.89402 16.91182 -14.57724
410.4203 97.06718 3161.441 1.361929 -5.86767 13.6714 4.146749 -20.80539 1.391973 -0 11.6444 -0 -4.212771 -0.6453156 -7.630843 -3.953347 17.85339 -7.541557 -0 35.76007 -0 -6.251833 -13.99116 12.73184 -0.4929386 -3.071726 4.339842 1.644633 13.0885 -7.539791 1.395954 23.07814 5.738573 2.672677 -21.77596 7.75931 0.1595607 -19.33314 12.56049 90.98545 22.00638 -20.95083 -0 0 9.846437 -18.73795 10.55834 6.499391 7.64782 -25.87792 -3.966172 -88.7027 13.61361 14.07612 0 0 -18.42681 22.33188 16.63379 -15.01842
411.5092 97.72069 3168.506 1.597534 -6.935673 13.32074 4.847627 -16.0111 2.603436 -0 14.49473 -0 -4.540372 -1.561951 -7.851865 -3.662657 14.94532 -7.51922 -0 45.34847 -0 -6.974258 -10.87639 13.36858 -0.5005982 -3.073669 4.339532 1.653269 13.06473 -7.545056 1.393968 23.07001 5.753268 2.676083 -21.80107 7.77795 0.1676336 -19.31631 12.55367 90.97728 22.05838 -20.97307 -0 0 9.825542 -18.68264 10.53452 6.465393 7.665711 -25.88205 -3.945057 -88.67128 13.60289 14.01732 0 0 -18.521 22.39814 16.59538 -15.08882
412.4824 98.85075 3175.244 1.921367 -8.042728 12.76255 5.321251 -10.74168 3.59901 -0 16.54923 -0 -4.754262 -3.027122 -7.726602 -3.287681 10.08795 -7.290035 -0 53.71057 -0 -7.478891 -8.29885 14.39755 -0.4698798 -3.064605 4.362963 1.613632 13.18927 -7.5059 1.406615 23.10253 5.664132 2.662812 -21.66353 7.675062 0.2058362 -19.42392 12.59935 90.88381 21.88742 -20.74056 -0 0 10.08604 -18.92821 10.70649 6.641379 7.579324 -25.78826 -3.991523 -88.95793 13.67892 14.48522 0 0 -17.70876 22.06712 16.82126 -14.76361
413.3744 100.1243 3181.545 2.215837 -8.883477 12.02102 5.553337 -5.568395 4.199854 -0 16.96703 -0 -4.707295 -4.962812 -7.1696 -2.758833 3.583641 -6.727839 -0 58.7319 -0 -7.579553 -6.664029 15.61766 -0.3983739 -3.052312 4.423567 1.523825 13.45741 -7.420167 1.434391 23.16093 5.467219 2.623211 -21.37463 7.455825 0.2580267 -19.68412 12.69344 90.70667 21.4941 -20.24353 -0 0 10.66417 -19.46216 11.07066 7.031363 7.38365 -25.59679 -4.105739 -89.54555 13.81582 15.48941 0 0 -16.07004 21.34154 17.27981 -14.03618
414.2752 101.1822 3187.471 2.386105 -9.284006 11.15113 5.566599 -0.7684228 4.287012 -0 15.72321 -0 -4.416377 -7.038201 -6.200388 -2.005917 -3.734043 -5.808613 -0 59.00154 -0 -7.11811 -5.993661 16.80469 -0.2905733 -3.047712 4.541598 1.387785 13.83639 -7.285984 1.476777 23.21347 5.167047 2.541299 -20.97382 7.144519 0.2988336 -20.1316 12.81952 90.44245 20.92609 -19.47144 -0 0 11.60165 -20.21924 11.59961 7.624679 7.08029 -25.30583 -4.271069 -90.37162 13.96361 16.99499 0 0 -13.82497 20.26662 17.87747 -12.93309
